<?xml version="1.0" encoding="UTF-8" standalone="no"?>
<!DOCTYPE svg PUBLIC "-//W3C//DTD SVG 1.0//EN"
 "http://www.w3.org/TR/2001/REC-SVG-20010904/DTD/svg10.dtd" [
 <!ATTLIST svg xmlns:xlink CDATA #FIXED "http://www.w3.org/1999/xlink">
]>
<!-- Generated by dot version 2.8 (20060217)
     For user: Bill Gates -->
<!-- Title: G Pages: 1 -->
<svg width="366pt" height="2463pt"
 viewBox = "0 0 366 2463"
 xmlns="http://www.w3.org/2000/svg" xmlns:xlink="http://www.w3.org/1999/xlink">
<g id="graph0" class="graph" style="font-family:Times-Roman;font-size:14.00;">
<title>G</title>
<polygon style="fill:white;stroke:white;" points="-2,2465 -2,-2 368,-2 368,2465 -2,2465"/>
<g id="graph2" class="cluster"><title>cluster_Global</title>
<polyline style="fill:none;stroke:gray;" points="52,2191 342,2191 "/>
<path style="fill:none;stroke:gray;" d="M342,2191C348,2191 354,2185 354,2179"/>
<polyline style="fill:none;stroke:gray;" points="354,2179 354,24 "/>
<path style="fill:none;stroke:gray;" d="M354,24C354,18 348,12 342,12"/>
<polyline style="fill:none;stroke:gray;" points="342,12 52,12 "/>
<path style="fill:none;stroke:gray;" d="M52,12C46,12 40,18 40,24"/>
<polyline style="fill:none;stroke:gray;" points="40,24 40,2179 "/>
<path style="fill:none;stroke:gray;" d="M40,2179C40,2185 46,2191 52,2191"/>
<text text-anchor="middle" x="197" y="26" style="font-size:11.00pt;fill:gray;">Global</text>
</g>
<!-- \\BadgesController -->
<g id="node2" class="node"><title>\\BadgesController</title>
<polygon style="fill:none;stroke:black;" points="333,1175 239,1175 239,1211 333,1211 333,1175"/>
<text text-anchor="middle" x="286" y="1197" style="font-size:11.00pt;">BadgesController</text>
</g>
<!-- \\Gdn_Controller -->
<g id="node44" class="node"><title>\\Gdn_Controller</title>
<ellipse style="fill:none;stroke:black;" cx="79" cy="2217" rx="60" ry="18"/>
<text text-anchor="middle" x="79" y="2222" style="fill:gray;">\Gdn_Controller</text>
</g>
<!-- \\BadgesController&#45;&gt;\\Gdn_Controller -->
<g id="edge3" class="edge"><title>\\BadgesController&#45;&gt;\\Gdn_Controller</title>
<path style="fill:none;stroke:black;" d="M239,1208C234,1211 229,1215 226,1220 101,1398 290,2027 154,2195 151,2199 147,2202 143,2204"/>
<polygon style="fill:none;stroke:black;" points="144,2207 134,2209 141,2201 144,2207"/>
</g>
<!-- \\BestController -->
<g id="node3" class="node"><title>\\BestController</title>
<polygon style="fill:none;stroke:black;" points="326,1229 246,1229 246,1265 326,1265 326,1229"/>
<text text-anchor="middle" x="286" y="1251" style="font-size:11.00pt;">BestController</text>
</g>
<!-- \\BestController&#45;&gt;\\Gdn_Controller -->
<g id="edge5" class="edge"><title>\\BestController&#45;&gt;\\Gdn_Controller</title>
<path style="fill:none;stroke:black;" d="M245,1258C238,1262 231,1267 226,1274 107,1442 283,2036 154,2195 151,2199 147,2202 143,2204"/>
<polygon style="fill:none;stroke:black;" points="144,2207 134,2209 141,2201 144,2207"/>
</g>
<!-- \\BadgesModule -->
<g id="node4" class="node"><title>\\BadgesModule</title>
<polygon style="fill:none;stroke:black;" points="327,1499 245,1499 245,1535 327,1535 327,1499"/>
<text text-anchor="middle" x="286" y="1521" style="font-size:11.00pt;">BadgesModule</text>
</g>
<!-- \\Gdn_Module -->
<g id="node47" class="node"><title>\\Gdn_Module</title>
<ellipse style="fill:none;stroke:black;" cx="79" cy="2271" rx="53" ry="18"/>
<text text-anchor="middle" x="79" y="2276" style="fill:gray;">\Gdn_Module</text>
</g>
<!-- \\BadgesModule&#45;&gt;\\Gdn_Module -->
<g id="edge7" class="edge"><title>\\BadgesModule&#45;&gt;\\Gdn_Module</title>
<path style="fill:none;stroke:black;" d="M245,1529C238,1533 231,1538 226,1544 42,1798 346,1998 154,2244 149,2250 143,2255 135,2259"/>
<polygon style="fill:none;stroke:black;" points="137,2262 126,2263 134,2256 137,2262"/>
</g>
<!-- \\QnAAnserCount -->
<g id="node5" class="node"><title>\\QnAAnserCount</title>
<polygon style="fill:none;stroke:black;" points="331,1067 241,1067 241,1103 331,1103 331,1067"/>
<text text-anchor="middle" x="286" y="1089" style="font-size:11.00pt;">QnAAnserCount</text>
</g>
<!-- \\YagaRule -->
<g id="node42" class="node"><title>\\YagaRule</title>
<polygon style="fill:none;stroke:black;" points="110,581 48,581 48,617 110,617 110,581"/>
<text text-anchor="middle" x="79" y="603" style="font-size:11.00pt;">YagaRule</text>
</g>
<!-- \\QnAAnserCount&#45;&gt;\\YagaRule -->
<g id="edge9" class="edge"><title>\\QnAAnserCount&#45;&gt;\\YagaRule</title>
<path style="fill:none;stroke:black;stroke-dasharray:1,5;" d="M240,1071C235,1068 230,1063 226,1058 105,902 284,769 154,621 145,612 133,606 120,603"/>
<polygon style="fill:none;stroke:black;" points="119,606 110,601 120,600 119,606"/>
</g>
<!-- \\LengthOfService -->
<g id="node6" class="node"><title>\\LengthOfService</title>
<polygon style="fill:none;stroke:black;" points="332,1121 240,1121 240,1157 332,1157 332,1121"/>
<text text-anchor="middle" x="286" y="1143" style="font-size:11.00pt;">LengthOfService</text>
</g>
<!-- \\LengthOfService&#45;&gt;\\YagaRule -->
<g id="edge11" class="edge"><title>\\LengthOfService&#45;&gt;\\YagaRule</title>
<path style="fill:none;stroke:black;stroke-dasharray:1,5;" d="M240,1125C235,1121 230,1117 226,1112 93,936 298,788 154,621 145,612 133,606 120,603"/>
<polygon style="fill:none;stroke:black;" points="119,606 110,601 120,600 119,606"/>
</g>
<!-- \\ReactionModel -->
<g id="node7" class="node"><title>\\ReactionModel</title>
<polygon style="fill:none;stroke:black;" points="328,1877 244,1877 244,1913 328,1913 328,1877"/>
<text text-anchor="middle" x="286" y="1899" style="font-size:11.00pt;">ReactionModel</text>
</g>
<!-- \\Gdn_Model -->
<g id="node51" class="node"><title>\\Gdn_Model</title>
<ellipse style="fill:none;stroke:black;" cx="79" cy="2325" rx="49" ry="18"/>
<text text-anchor="middle" x="79" y="2330" style="fill:gray;">\Gdn_Model</text>
</g>
<!-- \\ReactionModel&#45;&gt;\\Gdn_Model -->
<g id="edge13" class="edge"><title>\\ReactionModel&#45;&gt;\\Gdn_Model</title>
<path style="fill:none;stroke:black;" d="M244,1908C237,1912 231,1916 226,1922 120,2056 264,2168 154,2298 148,2305 141,2309 133,2313"/>
<polygon style="fill:none;stroke:black;" points="134,2317 123,2317 131,2310 134,2317"/>
</g>
<!-- \\RankController -->
<g id="node8" class="node"><title>\\RankController</title>
<polygon style="fill:none;stroke:black;" points="328,2039 244,2039 244,2075 328,2075 328,2039"/>
<text text-anchor="middle" x="286" y="2061" style="font-size:11.00pt;">RankController</text>
</g>
<!-- \\DashboardController -->
<g id="node53" class="node"><title>\\DashboardController</title>
<ellipse style="fill:none;stroke:black;" cx="79" cy="2379" rx="75" ry="18"/>
<text text-anchor="middle" x="79" y="2384" style="fill:gray;">\DashboardController</text>
</g>
<!-- \\RankController&#45;&gt;\\DashboardController -->
<g id="edge15" class="edge"><title>\\RankController&#45;&gt;\\DashboardController</title>
<path style="fill:none;stroke:black;" d="M243,2070C237,2074 231,2078 226,2084 146,2177 237,2261 154,2352 151,2355 147,2359 143,2361"/>
<polygon style="fill:none;stroke:black;" points="144,2364 134,2366 141,2358 144,2364"/>
</g>
<!-- \\ReflexComment -->
<g id="node9" class="node"><title>\\ReflexComment</title>
<polygon style="fill:none;stroke:black;" points="330,41 242,41 242,77 330,77 330,41"/>
<text text-anchor="middle" x="286" y="63" style="font-size:11.00pt;">ReflexComment</text>
</g>
<!-- \\ReflexComment&#45;&gt;\\YagaRule -->
<g id="edge17" class="edge"><title>\\ReflexComment&#45;&gt;\\YagaRule</title>
<path style="fill:none;stroke:black;stroke-dasharray:1,5;" d="M241,74C236,77 230,81 226,86 161,162 101,475 84,571"/>
<polygon style="fill:none;stroke:black;" points="87,572 82,581 81,571 87,572"/>
</g>
<!-- \\CommentMarathon -->
<g id="node10" class="node"><title>\\CommentMarathon</title>
<polygon style="fill:none;stroke:black;" points="337,95 235,95 235,131 337,131 337,95"/>
<text text-anchor="middle" x="286" y="117" style="font-size:11.00pt;">CommentMarathon</text>
</g>
<!-- \\CommentMarathon&#45;&gt;\\YagaRule -->
<g id="edge19" class="edge"><title>\\CommentMarathon&#45;&gt;\\YagaRule</title>
<path style="fill:none;stroke:black;stroke-dasharray:1,5;" d="M237,131C233,134 229,137 226,140 109,270 85,492 81,571"/>
<polygon style="fill:none;stroke:black;" points="84,571 80,581 78,571 84,571"/>
</g>
<!-- \\AwardCombo -->
<g id="node11" class="node"><title>\\AwardCombo</title>
<polygon style="fill:none;stroke:black;" points="326,149 246,149 246,185 326,185 326,149"/>
<text text-anchor="middle" x="286" y="171" style="font-size:11.00pt;">AwardCombo</text>
</g>
<!-- \\AwardCombo&#45;&gt;\\YagaRule -->
<g id="edge21" class="edge"><title>\\AwardCombo&#45;&gt;\\YagaRule</title>
<path style="fill:none;stroke:black;stroke-dasharray:1,5;" d="M246,180C238,183 231,188 226,194 121,307 90,499 82,571"/>
<polygon style="fill:none;stroke:black;" points="85,571 81,581 79,571 85,571"/>
</g>
<!-- \\BadgeModel -->
<g id="node12" class="node"><title>\\BadgeModel</title>
<polygon style="fill:none;stroke:black;" points="322,1553 250,1553 250,1589 322,1589 322,1553"/>
<text text-anchor="middle" x="286" y="1575" style="font-size:11.00pt;">BadgeModel</text>
</g>
<!-- \\BadgeModel&#45;&gt;\\Gdn_Model -->
<g id="edge23" class="edge"><title>\\BadgeModel&#45;&gt;\\Gdn_Model</title>
<path style="fill:none;stroke:black;" d="M249,1581C240,1585 232,1590 226,1598 42,1852 346,2052 154,2298 149,2304 141,2309 133,2313"/>
<polygon style="fill:none;stroke:black;" points="135,2316 124,2317 132,2310 135,2316"/>
</g>
<!-- \\BadgeAwardModel -->
<g id="node13" class="node"><title>\\BadgeAwardModel</title>
<polygon style="fill:none;stroke:black;" points="337,1607 235,1607 235,1643 337,1643 337,1607"/>
<text text-anchor="middle" x="286" y="1629" style="font-size:11.00pt;">BadgeAwardModel</text>
</g>
<!-- \\BadgeAwardModel&#45;&gt;\\Gdn_Model -->
<g id="edge25" class="edge"><title>\\BadgeAwardModel&#45;&gt;\\Gdn_Model</title>
<path style="fill:none;stroke:black;" d="M235,1643C231,1646 228,1649 226,1652 55,1886 332,2072 154,2298 149,2304 141,2309 133,2313"/>
<polygon style="fill:none;stroke:black;" points="135,2316 124,2317 132,2310 135,2316"/>
</g>
<!-- \\HolidayVisit -->
<g id="node14" class="node"><title>\\HolidayVisit</title>
<polygon style="fill:none;stroke:black;" points="322,203 250,203 250,239 322,239 322,203"/>
<text text-anchor="middle" x="286" y="225" style="font-size:11.00pt;">HolidayVisit</text>
</g>
<!-- \\HolidayVisit&#45;&gt;\\YagaRule -->
<g id="edge27" class="edge"><title>\\HolidayVisit&#45;&gt;\\YagaRule</title>
<path style="fill:none;stroke:black;stroke-dasharray:1,5;" d="M249,233C241,237 232,242 226,248 132,344 95,506 84,571"/>
<polygon style="fill:none;stroke:black;" points="87,572 82,581 81,571 87,572"/>
</g>
<!-- \\BestFilterModule -->
<g id="node15" class="node"><title>\\BestFilterModule</title>
<polygon style="fill:none;stroke:black;" points="332,1391 240,1391 240,1427 332,1427 332,1391"/>
<text text-anchor="middle" x="286" y="1413" style="font-size:11.00pt;">BestFilterModule</text>
</g>
<!-- \\BestFilterModule&#45;&gt;\\Gdn_Module -->
<g id="edge29" class="edge"><title>\\BestFilterModule&#45;&gt;\\Gdn_Module</title>
<path style="fill:none;stroke:black;" d="M239,1424C234,1427 229,1431 226,1436 121,1583 264,2102 154,2244 149,2250 143,2255 135,2259"/>
<polygon style="fill:none;stroke:black;" points="137,2262 126,2263 134,2256 137,2262"/>
</g>
<!-- \\ReactionCount -->
<g id="node16" class="node"><title>\\ReactionCount</title>
<polygon style="fill:none;stroke:black;" points="327,257 245,257 245,293 327,293 327,257"/>
<text text-anchor="middle" x="286" y="279" style="font-size:11.00pt;">ReactionCount</text>
</g>
<!-- \\ReactionCount&#45;&gt;\\YagaRule -->
<g id="edge31" class="edge"><title>\\ReactionCount&#45;&gt;\\YagaRule</title>
<path style="fill:none;stroke:black;stroke-dasharray:1,5;" d="M244,289C238,293 231,297 226,302 144,381 101,513 86,571"/>
<polygon style="fill:none;stroke:black;" points="89,572 83,581 83,570 89,572"/>
</g>
<!-- \\LeaderBoardModule -->
<g id="node17" class="node"><title>\\LeaderBoardModule</title>
<polygon style="fill:none;stroke:black;" points="339,1445 233,1445 233,1481 339,1481 339,1445"/>
<text text-anchor="middle" x="286" y="1467" style="font-size:11.00pt;">LeaderBoardModule</text>
</g>
<!-- \\LeaderBoardModule&#45;&gt;\\Gdn_Module -->
<g id="edge33" class="edge"><title>\\LeaderBoardModule&#45;&gt;\\Gdn_Module</title>
<path style="fill:none;stroke:black;" d="M235,1481C231,1484 228,1487 226,1490 29,1764 360,1979 154,2244 149,2250 143,2255 135,2259"/>
<polygon style="fill:none;stroke:black;" points="137,2262 126,2263 134,2256 137,2262"/>
</g>
<!-- \\ReactController -->
<g id="node18" class="node"><title>\\ReactController</title>
<polygon style="fill:none;stroke:black;" points="329,1283 243,1283 243,1319 329,1319 329,1283"/>
<text text-anchor="middle" x="286" y="1305" style="font-size:11.00pt;">ReactController</text>
</g>
<!-- \\ReactController&#45;&gt;\\Gdn_Controller -->
<g id="edge35" class="edge"><title>\\ReactController&#45;&gt;\\Gdn_Controller</title>
<path style="fill:none;stroke:black;" d="M242,1314C236,1318 230,1322 226,1328 114,1486 276,2046 154,2195 151,2199 147,2202 143,2204"/>
<polygon style="fill:none;stroke:black;" points="144,2207 134,2209 141,2201 144,2207"/>
</g>
<!-- \\ManualAward -->
<g id="node19" class="node"><title>\\ManualAward</title>
<polygon style="fill:none;stroke:black;" points="326,311 246,311 246,347 326,347 326,311"/>
<text text-anchor="middle" x="286" y="333" style="font-size:11.00pt;">ManualAward</text>
</g>
<!-- \\ManualAward&#45;&gt;\\YagaRule -->
<g id="edge37" class="edge"><title>\\ManualAward&#45;&gt;\\YagaRule</title>
<path style="fill:none;stroke:black;stroke-dasharray:1,5;" d="M246,343C239,347 232,351 226,356 155,419 108,522 89,572"/>
<polygon style="fill:none;stroke:black;" points="92,573 85,581 86,570 92,573"/>
</g>
<!-- \\ActionModel -->
<g id="node20" class="node"><title>\\ActionModel</title>
<polygon style="fill:none;stroke:black;" points="324,1661 248,1661 248,1697 324,1697 324,1661"/>
<text text-anchor="middle" x="286" y="1683" style="font-size:11.00pt;">ActionModel</text>
</g>
<!-- \\ActionModel&#45;&gt;\\Gdn_Model -->
<g id="edge39" class="edge"><title>\\ActionModel&#45;&gt;\\Gdn_Model</title>
<path style="fill:none;stroke:black;" d="M248,1689C239,1693 231,1699 226,1706 68,1920 319,2091 154,2298 148,2304 141,2309 133,2313"/>
<polygon style="fill:none;stroke:black;" points="135,2316 124,2317 132,2310 135,2316"/>
</g>
<!-- \\NewbieComment -->
<g id="node21" class="node"><title>\\NewbieComment</title>
<polygon style="fill:none;stroke:black;" points="333,365 239,365 239,401 333,401 333,365"/>
<text text-anchor="middle" x="286" y="387" style="font-size:11.00pt;">NewbieComment</text>
</g>
<!-- \\NewbieComment&#45;&gt;\\YagaRule -->
<g id="edge41" class="edge"><title>\\NewbieComment&#45;&gt;\\YagaRule</title>
<path style="fill:none;stroke:black;stroke-dasharray:1,5;" d="M239,401C234,404 230,407 226,410 167,456 118,532 94,572"/>
<polygon style="fill:none;stroke:black;" points="97,574 89,581 91,571 97,574"/>
</g>
<!-- \\DiscussionPageCount -->
<g id="node22" class="node"><title>\\DiscussionPageCount</title>
<polygon style="fill:none;stroke:black;" points="343,419 229,419 229,455 343,455 343,419"/>
<text text-anchor="middle" x="286" y="441" style="font-size:11.00pt;">DiscussionPageCount</text>
</g>
<!-- \\DiscussionPageCount&#45;&gt;\\YagaRule -->
<g id="edge43" class="edge"><title>\\DiscussionPageCount&#45;&gt;\\YagaRule</title>
<path style="fill:none;stroke:black;stroke-dasharray:1,5;" d="M241,455C236,458 231,461 226,464 177,496 129,544 102,573"/>
<polygon style="fill:none;stroke:black;" points="104,576 95,581 99,571 104,576"/>
</g>
<!-- \\PhotoExists -->
<g id="node23" class="node"><title>\\PhotoExists</title>
<polygon style="fill:none;stroke:black;" points="320,473 252,473 252,509 320,509 320,473"/>
<text text-anchor="middle" x="286" y="495" style="font-size:11.00pt;">PhotoExists</text>
</g>
<!-- \\PhotoExists&#45;&gt;\\YagaRule -->
<g id="edge45" class="edge"><title>\\PhotoExists&#45;&gt;\\YagaRule</title>
<path style="fill:none;stroke:black;stroke-dasharray:1,5;" d="M251,506C243,510 234,514 226,518 189,537 148,559 119,576"/>
<polygon style="fill:none;stroke:black;" points="120,579 110,581 117,573 120,579"/>
</g>
<!-- \\HasMentioned -->
<g id="node24" class="node"><title>\\HasMentioned</title>
<polygon style="fill:none;stroke:black;" points="326,527 246,527 246,563 326,563 326,527"/>
<text text-anchor="middle" x="286" y="549" style="font-size:11.00pt;">HasMentioned</text>
</g>
<!-- \\HasMentioned&#45;&gt;\\YagaRule -->
<g id="edge47" class="edge"><title>\\HasMentioned&#45;&gt;\\YagaRule</title>
<path style="fill:none;stroke:black;stroke-dasharray:1,5;" d="M245,556C209,565 156,578 120,588"/>
<polygon style="fill:none;stroke:black;" points="121,591 110,591 119,585 121,591"/>
</g>
<!-- \\CommentCount -->
<g id="node25" class="node"><title>\\CommentCount</title>
<polygon style="fill:none;stroke:black;" points="329,581 243,581 243,617 329,617 329,581"/>
<text text-anchor="middle" x="286" y="603" style="font-size:11.00pt;">CommentCount</text>
</g>
<!-- \\CommentCount&#45;&gt;\\YagaRule -->
<g id="edge49" class="edge"><title>\\CommentCount&#45;&gt;\\YagaRule</title>
<path style="fill:none;stroke:black;stroke-dasharray:1,5;" d="M243,599C207,599 156,599 120,599"/>
<polygon style="fill:none;stroke:black;" points="120,602 110,599 120,595 120,602"/>
</g>
<!-- \\YagaController -->
<g id="node26" class="node"><title>\\YagaController</title>
<polygon style="fill:none;stroke:black;" points="329,2093 243,2093 243,2129 329,2129 329,2093"/>
<text text-anchor="middle" x="286" y="2115" style="font-size:11.00pt;">YagaController</text>
</g>
<!-- \\YagaController&#45;&gt;\\DashboardController -->
<g id="edge51" class="edge"><title>\\YagaController&#45;&gt;\\DashboardController</title>
<path style="fill:none;stroke:black;" d="M243,2125C236,2129 231,2133 226,2138 158,2212 224,2280 154,2352 150,2356 147,2359 142,2361"/>
<polygon style="fill:none;stroke:black;" points="143,2364 133,2366 140,2358 143,2364"/>
</g>
<!-- \\DiscussionCategory -->
<g id="node27" class="node"><title>\\DiscussionCategory</title>
<polygon style="fill:none;stroke:black;" points="338,635 234,635 234,671 338,671 338,635"/>
<text text-anchor="middle" x="286" y="657" style="font-size:11.00pt;">DiscussionCategory</text>
</g>
<!-- \\DiscussionCategory&#45;&gt;\\YagaRule -->
<g id="edge53" class="edge"><title>\\DiscussionCategory&#45;&gt;\\YagaRule</title>
<path style="fill:none;stroke:black;stroke-dasharray:1,5;" d="M233,639C198,630 152,618 120,609"/>
<polygon style="fill:none;stroke:black;" points="119,612 110,607 120,606 119,612"/>
</g>
<!-- \\ActionController -->
<g id="node28" class="node"><title>\\ActionController</title>
<polygon style="fill:none;stroke:black;" points="332,1931 240,1931 240,1967 332,1967 332,1931"/>
<text text-anchor="middle" x="286" y="1953" style="font-size:11.00pt;">ActionController</text>
</g>
<!-- \\ActionController&#45;&gt;\\DashboardController -->
<g id="edge55" class="edge"><title>\\ActionController&#45;&gt;\\DashboardController</title>
<path style="fill:none;stroke:black;" d="M239,1965C234,1968 230,1972 226,1976 120,2110 264,2222 154,2352 151,2355 147,2359 143,2361"/>
<polygon style="fill:none;stroke:black;" points="144,2364 134,2366 141,2358 144,2364"/>
</g>
<!-- \\YagaHooks -->
<g id="node29" class="node"><title>\\YagaHooks</title>
<polygon style="fill:none;stroke:black;" points="320,2147 252,2147 252,2183 320,2183 320,2147"/>
<text text-anchor="middle" x="286" y="2169" style="font-size:11.00pt;">YagaHooks</text>
</g>
<!-- \\Gdn_IPlugin -->
<g id="node75" class="node"><title>\\Gdn_IPlugin</title>
<ellipse style="fill:none;stroke:black;" cx="79" cy="2433" rx="52" ry="18"/>
<text text-anchor="middle" x="79" y="2438" style="fill:gray;">\Gdn_IPlugin</text>
</g>
<!-- \\YagaHooks&#45;&gt;\\Gdn_IPlugin -->
<g id="edge57" class="edge"><title>\\YagaHooks&#45;&gt;\\Gdn_IPlugin</title>
<path style="fill:none;stroke:black;stroke-dasharray:1,5;" d="M281,2183C267,2228 227,2342 154,2406 148,2412 140,2416 132,2419"/>
<polygon style="fill:none;stroke:black;" points="134,2422 123,2423 131,2416 134,2422"/>
</g>
<!-- \\ActedModel -->
<g id="node30" class="node"><title>\\ActedModel</title>
<polygon style="fill:none;stroke:black;" points="322,1715 250,1715 250,1751 322,1751 322,1715"/>
<text text-anchor="middle" x="286" y="1737" style="font-size:11.00pt;">ActedModel</text>
</g>
<!-- \\ActedModel&#45;&gt;\\Gdn_Model -->
<g id="edge59" class="edge"><title>\\ActedModel&#45;&gt;\\Gdn_Model</title>
<path style="fill:none;stroke:black;" d="M250,1742C241,1746 232,1752 226,1760 81,1954 305,2111 154,2298 148,2304 141,2309 133,2313"/>
<polygon style="fill:none;stroke:black;" points="135,2316 124,2317 132,2310 135,2316"/>
</g>
<!-- \\SocialConnection -->
<g id="node31" class="node"><title>\\SocialConnection</title>
<polygon style="fill:none;stroke:black;" points="333,689 239,689 239,725 333,725 333,689"/>
<text text-anchor="middle" x="286" y="711" style="font-size:11.00pt;">SocialConnection</text>
</g>
<!-- \\SocialConnection&#45;&gt;\\YagaRule -->
<g id="edge61" class="edge"><title>\\SocialConnection&#45;&gt;\\YagaRule</title>
<path style="fill:none;stroke:black;stroke-dasharray:1,5;" d="M241,689C236,686 231,683 226,680 190,659 190,641 154,621 143,616 131,611 120,608"/>
<polygon style="fill:none;stroke:black;" points="119,611 110,605 121,605 119,611"/>
</g>
<!-- \\PostReactions -->
<g id="node32" class="node"><title>\\PostReactions</title>
<polygon style="fill:none;stroke:black;" points="325,743 247,743 247,779 325,779 325,743"/>
<text text-anchor="middle" x="286" y="765" style="font-size:11.00pt;">PostReactions</text>
</g>
<!-- \\PostReactions&#45;&gt;\\YagaRule -->
<g id="edge63" class="edge"><title>\\PostReactions&#45;&gt;\\YagaRule</title>
<path style="fill:none;stroke:black;stroke-dasharray:1,5;" d="M246,747C239,744 232,739 226,734 180,696 201,657 154,621 144,614 131,609 120,606"/>
<polygon style="fill:none;stroke:black;" points="119,609 110,603 121,603 119,609"/>
</g>
<!-- \\PostCount -->
<g id="node33" class="node"><title>\\PostCount</title>
<polygon style="fill:none;stroke:black;" points="317,797 255,797 255,833 317,833 317,797"/>
<text text-anchor="middle" x="286" y="819" style="font-size:11.00pt;">PostCount</text>
</g>
<!-- \\PostCount&#45;&gt;\\YagaRule -->
<g id="edge65" class="edge"><title>\\PostCount&#45;&gt;\\YagaRule</title>
<path style="fill:none;stroke:black;stroke-dasharray:1,5;" d="M255,806C244,802 234,796 226,788 169,731 214,675 154,621 145,612 132,607 120,604"/>
<polygon style="fill:none;stroke:black;" points="119,607 110,602 120,601 119,607"/>
</g>
<!-- \\Yaga -->
<g id="node34" class="node"><title>\\Yaga</title>
<polygon style="fill:none;stroke:black;" points="313,1769 259,1769 259,1805 313,1805 313,1769"/>
<text text-anchor="middle" x="286" y="1791" style="font-size:11.00pt;">Yaga</text>
</g>
<!-- \\RulesController -->
<g id="node35" class="node"><title>\\RulesController</title>
<polygon style="fill:none;stroke:black;" points="329,1337 243,1337 243,1373 329,1373 329,1337"/>
<text text-anchor="middle" x="286" y="1359" style="font-size:11.00pt;">RulesController</text>
</g>
<!-- \\RulesController&#45;&gt;\\Gdn_Controller -->
<g id="edge67" class="edge"><title>\\RulesController&#45;&gt;\\Gdn_Controller</title>
<path style="fill:none;stroke:black;" d="M242,1368C236,1372 230,1376 226,1382 120,1530 269,2055 154,2195 151,2198 147,2202 143,2204"/>
<polygon style="fill:none;stroke:black;" points="144,2207 134,2209 141,2201 144,2207"/>
</g>
<!-- \\BadgeController -->
<g id="node36" class="node"><title>\\BadgeController</title>
<polygon style="fill:none;stroke:black;" points="330,1985 242,1985 242,2021 330,2021 330,1985"/>
<text text-anchor="middle" x="286" y="2007" style="font-size:11.00pt;">BadgeController</text>
</g>
<!-- \\BadgeController&#45;&gt;\\DashboardController -->
<g id="edge69" class="edge"><title>\\BadgeController&#45;&gt;\\DashboardController</title>
<path style="fill:none;stroke:black;" d="M241,2017C236,2021 230,2025 226,2030 133,2144 250,2242 154,2352 151,2355 147,2359 143,2361"/>
<polygon style="fill:none;stroke:black;" points="144,2364 134,2366 141,2358 144,2364"/>
</g>
<!-- \\DiscussionCount -->
<g id="node37" class="node"><title>\\DiscussionCount</title>
<polygon style="fill:none;stroke:black;" points="332,851 240,851 240,887 332,887 332,851"/>
<text text-anchor="middle" x="286" y="873" style="font-size:11.00pt;">DiscussionCount</text>
</g>
<!-- \\DiscussionCount&#45;&gt;\\YagaRule -->
<g id="edge71" class="edge"><title>\\DiscussionCount&#45;&gt;\\YagaRule</title>
<path style="fill:none;stroke:black;stroke-dasharray:1,5;" d="M240,853C235,850 230,846 226,842 156,766 228,693 154,621 145,612 132,607 120,604"/>
<polygon style="fill:none;stroke:black;" points="119,607 110,602 120,601 119,607"/>
</g>
<!-- \\DiscussionBodyLength -->
<g id="node38" class="node"><title>\\DiscussionBodyLength</title>
<polygon style="fill:none;stroke:black;" points="345,905 227,905 227,941 345,941 345,905"/>
<text text-anchor="middle" x="286" y="927" style="font-size:11.00pt;">DiscussionBodyLength</text>
</g>
<!-- \\DiscussionBodyLength&#45;&gt;\\YagaRule -->
<g id="edge73" class="edge"><title>\\DiscussionBodyLength&#45;&gt;\\YagaRule</title>
<path style="fill:none;stroke:black;stroke-dasharray:1,5;" d="M235,905C232,902 229,899 226,896 144,800 242,712 154,621 145,612 132,607 120,604"/>
<polygon style="fill:none;stroke:black;" points="119,607 110,602 120,601 119,607"/>
</g>
<!-- \\NecroPost -->
<g id="node39" class="node"><title>\\NecroPost</title>
<polygon style="fill:none;stroke:black;" points="317,959 255,959 255,995 317,995 317,959"/>
<text text-anchor="middle" x="286" y="981" style="font-size:11.00pt;">NecroPost</text>
</g>
<!-- \\NecroPost&#45;&gt;\\YagaRule -->
<g id="edge75" class="edge"><title>\\NecroPost&#45;&gt;\\YagaRule</title>
<path style="fill:none;stroke:black;stroke-dasharray:1,5;" d="M254,969C244,965 233,959 226,950 131,834 256,731 154,621 145,612 132,606 120,603"/>
<polygon style="fill:none;stroke:black;" points="119,606 110,601 120,600 119,606"/>
</g>
<!-- \\CakeDayPost -->
<g id="node40" class="node"><title>\\CakeDayPost</title>
<polygon style="fill:none;stroke:black;" points="324,1013 248,1013 248,1049 324,1049 324,1013"/>
<text text-anchor="middle" x="286" y="1035" style="font-size:11.00pt;">CakeDayPost</text>
</g>
<!-- \\CakeDayPost&#45;&gt;\\YagaRule -->
<g id="edge77" class="edge"><title>\\CakeDayPost&#45;&gt;\\YagaRule</title>
<path style="fill:none;stroke:black;stroke-dasharray:1,5;" d="M248,1020C240,1017 232,1011 226,1004 118,868 270,750 154,621 145,612 132,606 120,603"/>
<polygon style="fill:none;stroke:black;" points="119,606 110,601 120,600 119,606"/>
</g>
<!-- \\RankModel -->
<g id="node41" class="node"><title>\\RankModel</title>
<polygon style="fill:none;stroke:black;" points="320,1823 252,1823 252,1859 320,1859 320,1823"/>
<text text-anchor="middle" x="286" y="1845" style="font-size:11.00pt;">RankModel</text>
</g>
<!-- \\RankModel&#45;&gt;\\Gdn_Model -->
<g id="edge79" class="edge"><title>\\RankModel&#45;&gt;\\Gdn_Model</title>
<path style="fill:none;stroke:black;" d="M252,1850C242,1854 232,1860 226,1868 107,2022 278,2150 154,2298 148,2304 141,2309 133,2313"/>
<polygon style="fill:none;stroke:black;" points="135,2316 124,2317 132,2310 135,2316"/>
</g>
</g>
</svg>
